HIERARCHY
ROOT Hips
{
	OFFSET 0.00000 0.00000 0.00000
	CHANNELS 6 Xposition Yposition Zposition Zrotation Yrotation Xrotation 
	JOINT LHipJoint
	{
		OFFSET 0 0 0
		CHANNELS 3 Zrotation Yrotation Xrotation
		JOINT LeftHip
		{
			OFFSET 1.53927 -1.56553 0.51726
			CHANNELS 3 Zrotation Yrotation Xrotation
			JOINT LeftKnee
			{
				OFFSET 2.38199 -6.54447 0.00000
				CHANNELS 3 Zrotation Yrotation Xrotation
				JOINT LeftAnkle
				{
					OFFSET 2.35499 -6.47028 0.00000
					CHANNELS 3 Zrotation Yrotation Xrotation
					JOINT LeftToe
					{
						OFFSET 0.13641 -0.37478 1.84251
						CHANNELS 3 Zrotation Yrotation Xrotation
						End Site
						{
							OFFSET 0.00000 -0.00000 0.95212
						}
					}
				}
			}
		}
	}
	JOINT RHipJoint
	{
		OFFSET 0 0 0
		CHANNELS 3 Zrotation Yrotation Xrotation
		JOINT RightHip
		{
			OFFSET -1.43919 -1.56553 0.51726
			CHANNELS 3 Zrotation Yrotation Xrotation
			JOINT RightKnee
			{
				OFFSET -2.34860 -6.45274 0.00000
				CHANNELS 3 Zrotation Yrotation Xrotation
				JOINT RightAnkle
				{
					OFFSET -2.25563 -6.19730 0.00000
					CHANNELS 3 Zrotation Yrotation Xrotation
					JOINT RightToe
					{
						OFFSET -0.19755 -0.54277 1.84912
						CHANNELS 3 Zrotation Yrotation Xrotation
						End Site
						{
							OFFSET -0.00000 -0.00000 0.97032
						}
					}
				}
			}
		}
	}
	JOINT lowerback
	{
		OFFSET 0 0 0
		CHANNELS 3 Zrotation Yrotation Xrotation
		JOINT Chest
		{
			OFFSET -0.06402 1.88434 -0.00445
			CHANNELS 3 Zrotation Yrotation Xrotation
			JOINT Chest2
			{
				OFFSET 0.00756 1.88511 0.04237
				CHANNELS 3 Zrotation Yrotation Xrotation
				JOINT lowerneck
				{
					OFFSET 0 0 0
					CHANNELS 3 Zrotation Yrotation Xrotation
					JOINT Neck
					{
						OFFSET -0.06230 1.34710 0.03308
						CHANNELS 3 Zrotation Yrotation Xrotation
						JOINT Head
						{
							OFFSET -0.02442 1.34501 -0.13654
							CHANNELS 3 Zrotation Yrotation Xrotation
							End Site
							{
								OFFSET -0.00508 1.35584 -0.05075
							}
						}
					}
				}
				JOINT LeftCollar
				{
					OFFSET 0 0 0
					CHANNELS 3 Zrotation Yrotation Xrotation
					JOINT LeftShoulder
					{
						OFFSET 2.76911 0.54460 0.39412
CHANNELS 3 Zrotation Xrotation Yrotation
						JOINT LeftElbow
						{
OFFSET 0 -4.409190 -0.000000
CHANNELS 3 Zrotation Xrotation Yrotation
							JOINT LeftWrist
							{
OFFSET 0 -3.038570 -0.000000
CHANNELS 3 Zrotation Xrotation Yrotation
								JOINT lhand
								{
									OFFSET 0 0 0
CHANNELS 3 Zrotation Xrotation Yrotation
									JOINT LFingers
									{
OFFSET 0 -0.523210 -0.000000
CHANNELS 3 Zrotation Xrotation Yrotation
										End Site
										{
OFFSET 0 -0.421820 -0.000000
										}
									}
								}
								JOINT LThumb
								{
OFFSET 0 0.000000 0.000000
CHANNELS 3 Zrotation Xrotation Yrotation
									End Site
									{
OFFSET 0 -0.428260 0.428260
									}
								}
							}
						}
					}
				}
				JOINT RightCollar
				{
					OFFSET 0 0 0
					CHANNELS 3 Zrotation Yrotation Xrotation
					JOINT RightShoulder
					{
						OFFSET -2.99050 0.75949 0.48975
CHANNELS 3 Zrotation Xrotation Yrotation
						JOINT RightElbow
						{
OFFSET 0 -4.619690 -0.000000
CHANNELS 3 Zrotation Xrotation Yrotation
							JOINT RightWrist
							{
OFFSET 0 -3.093820 -0.000000
CHANNELS 3 Zrotation Xrotation Yrotation
								JOINT rhand
								{
									OFFSET 0 0 0
CHANNELS 3 Zrotation Xrotation Yrotation
									JOINT RFingers
									{
OFFSET 0 -0.500900 -0.000000
CHANNELS 3 Zrotation Xrotation Yrotation
										End Site
										{
OFFSET 0 -0.403840 -0.000000
										}
									}
								}
								JOINT RThumb
								{
OFFSET 0 0.000000 0.000000
CHANNELS 3 Zrotation Xrotation Yrotation
									End Site
									{
OFFSET 0 -0.410000 0.410000
									}
								}
							}
						}
					}
				}
			}
		}
	}
}
MOTION
Frames: 12
Frame Time: 0.008333333333333333
7.589700 16.372100 -1.271200 141.703000 -87.050700 -133.899000 0.000000 0.000000 0.000000 -20.738500 -13.083800 3.087400 0.228900 3.079700 8.500700 -0.854600 19.185500 -18.359400 1.218400 7.001400 19.719600 0.000000 0.000000 0.000000 18.154000 17.414600 -2.045700 -0.560800 -4.796500 13.329100 -0.333700 -9.515100 -18.203400 -0.398700 -4.054200 11.229100 -1.690200 0.285500 -6.596700 0.353900 0.271800 -5.733600 1.327100 0.117600 -2.231500 5.706500 8.241800 2.043600 -10.640200 11.905400 12.938500 -3.745900 5.539900 4.508100 -0.000000 0.000000 0.000000 -3.941600 17.038000 -13.821400 16.865100 -26.679600 4.026600 21.395300 17.366600 10.750300 0.000000 0.000000 0.000000 -7.125000 0.000000 0.000000 -4.002700 18.470500 -2.534600 -0.000000 0.000000 0.000000 -0.746100 13.187000 7.344700 -14.690100 -23.712600 -3.100200 -15.932200 19.746500 45.001900 0.000000 0.000000 0.000000 7.125000 0.000000 -0.000000 38.348100 73.033300 -26.505800
7.568102 16.367935 -1.312311 138.517968 -87.336145 -130.684559 0.000000 0.000000 0.000000 -20.452860 -13.346936 3.235853 0.221167 3.027055 8.354109 -0.898264 19.383449 -18.184430 1.232243 7.038597 19.830356 0.000000 0.000000 0.000000 18.403968 17.172165 -2.107870 -0.563940 -4.809631 13.366443 -0.357875 -9.396484 -18.360353 -0.420359 -4.161333 11.531074 -1.563765 0.332989 -6.477593 0.353425 0.318194 -5.932844 1.257140 0.136919 -2.505577 5.863421 8.347205 2.621283 -10.779819 12.053406 12.705248 -3.834114 5.638325 4.371371 0.000000 0.000000 0.000000 -4.061903 17.537230 -13.445387 16.946696 -26.787447 4.063267 20.346151 17.635983 9.989516 0.000000 0.000000 0.000000 -7.125000 0.000000 0.000000 -4.729827 19.359466 -2.904181 0.000000 0.000000 0.000000 -0.769391 13.537680 7.708342 -14.725199 -23.761886 -3.114386 -15.894619 19.721373 46.157326 0.000000 0.000000 0.000000 7.125000 0.000000 0.000000 41.321624 73.819054 -29.387740
7.553456 16.366911 -1.356062 131.971020 -87.659947 -123.998028 0.000000 0.000000 0.000000 -20.127584 -13.789519 3.237052 0.215185 2.986374 8.240745 -0.926037 19.427368 -17.872554 1.137890 6.774350 19.048520 0.000000 0.000000 0.000000 18.611515 17.049846 -2.180434 -0.565741 -4.817275 13.388228 -0.367146 -9.486096 -18.559322 -0.480081 -4.443326 12.327269 -1.460777 0.435936 -6.574175 0.239987 0.454478 -5.873930 1.088926 0.199490 -2.392555 6.340633 8.498099 2.424391 -11.061457 12.290150 12.616772 -3.972151 5.765675 4.444060 0.000000 0.000000 0.000000 -3.785522 17.395206 -13.754918 16.864291 -26.678506 4.026192 21.244638 16.326974 10.364778 0.000000 0.000000 0.000000 -7.125000 0.000000 0.000000 -4.099281 18.893159 -2.557611 0.000000 0.000000 0.000000 -0.500750 13.274376 7.428759 -14.697242 -23.722643 -3.103146 -15.422219 19.537178 46.539510 0.000000 0.000000 0.000000 7.125000 0.000000 0.000000 42.825212 73.897140 -30.615556
7.529852 16.362282 -1.399425 121.478628 -87.821566 -113.466409 0.000000 0.000000 0.000000 -20.018061 -14.167703 3.459232 0.204242 2.909644 8.027268 -1.026219 19.843354 -17.355621 1.042162 6.492167 18.219478 0.000000 0.000000 0.000000 18.692943 16.686614 -2.216517 -0.569646 -4.833716 13.434951 -0.371905 -9.610660 -18.743218 -0.469291 -4.393915 12.187548 -1.649612 0.426143 -6.603969 0.276388 0.449097 -5.910727 1.232038 0.203827 -2.417187 6.227300 8.850771 2.200917 -10.900745 12.776494 12.933430 -3.860342 5.988625 4.606806 0.000000 0.000000 0.000000 -4.025301 17.637534 -13.041801 17.033994 -26.902529 4.102757 23.494759 17.028760 10.089275 0.000000 0.000000 0.000000 -7.125000 0.000000 0.000000 -2.494644 19.005077 -1.548041 0.000000 0.000000 0.000000 -0.573187 13.463270 7.973338 -14.807127 -23.876691 -3.147481 -16.381908 20.239182 47.103686 0.000000 0.000000 0.000000 7.125000 0.000000 0.000000 43.476577 74.621089 -31.739054
7.509069 16.362464 -1.442386 110.989883 -87.844240 -103.172491 0.000000 0.000000 0.000000 -20.039605 -14.405433 3.908840 0.194567 2.840375 7.834776 -1.029343 19.807280 -17.206355 0.957295 6.230000 17.453296 0.000000 0.000000 0.000000 18.787826 16.286673 -2.020215 -0.579511 -4.874543 13.551209 -0.399202 -9.509675 -18.944846 -0.519148 -4.618026 12.822187 -1.753602 0.468387 -6.384151 0.200794 0.517281 -5.756722 1.214128 0.243467 -2.381344 6.753005 8.883763 2.828490 -11.751066 12.858456 11.986548 -4.239525 6.070781 4.307770 0.000000 0.000000 0.000000 -3.943365 17.455281 -13.155664 16.909070 -26.737676 4.046335 22.050756 16.437366 10.416519 0.000000 0.000000 0.000000 -7.125000 0.000000 0.000000 -3.529755 18.773154 -2.210122 0.000000 0.000000 0.000000 -0.525153 13.216399 8.092739 -14.827484 -23.905207 -3.155688 -15.975446 19.982331 46.990792 0.000000 0.000000 0.000000 7.125000 0.000000 0.000000 43.544541 74.395507 -31.601395
7.499140 16.356920 -1.487493 92.676633 -88.034881 -84.939099 0.000000 0.000000 0.000000 -19.720717 -15.089648 3.980336 0.205574 2.919111 8.053632 -1.072274 20.019627 -17.069149 0.955326 6.222308 17.431235 0.000000 0.000000 0.000000 19.151511 16.037321 -1.864288 -0.578069 -4.868636 13.534223 -0.386814 -9.878730 -19.189738 -0.554579 -4.770204 13.254307 -1.723811 0.417115 -6.343299 0.235764 0.457382 -5.617175 1.230944 0.214866 -2.256568 7.596799 9.096348 2.146334 -12.542963 13.274954 12.595824 -4.546958 6.233015 4.754944 0.000000 0.000000 0.000000 -3.954882 17.274238 -12.848069 16.894787 -26.718852 4.039903 23.632218 16.329902 10.488507 0.000000 0.000000 0.000000 -7.125000 0.000000 0.000000 -2.414010 18.560341 -1.520340 0.000000 0.000000 0.000000 -0.537457 13.106934 8.563139 -14.887747 -23.989549 -3.180163 -16.485335 20.395997 46.541909 0.000000 0.000000 0.000000 7.125000 0.000000 0.000000 41.774687 74.295755 -30.130632
7.474590 16.353027 -1.538028 78.225700 -88.057342 -70.424913 0.000000 0.000000 0.000000 -19.358660 -15.608753 3.952464 0.217250 3.000585 8.280281 -1.103633 20.184689 -16.999617 0.822217 5.785611 16.163674 0.000000 0.000000 0.000000 19.509573 15.947189 -1.732748 -0.572911 -4.847244 13.473394 -0.417232 -9.899083 -19.542409 -0.633775 -5.093337 14.174984 -1.645899 0.515574 -6.545465 0.157075 0.588160 -5.597239 1.113471 0.275229 -2.126076 8.045884 9.208432 2.203040 -12.864493 13.476182 12.676381 -4.704602 6.337925 4.843094 0.000000 0.000000 0.000000 -3.791819 17.554296 -12.889179 17.204456 -27.126378 4.180191 24.083327 16.051412 10.739974 0.000000 0.000000 0.000000 -7.125000 0.000000 0.000000 -2.106284 18.247636 -1.341670 0.000000 0.000000 0.000000 -0.310935 13.158868 8.393361 -14.869788 -23.964363 -3.172874 -15.674681 20.231704 47.158106 0.000000 0.000000 0.000000 7.125000 0.000000 0.000000 44.332426 74.382226 -32.223152
7.453707 16.349128 -1.587032 66.330843 -87.890457 -58.524257 0.000000 0.000000 0.000000 -19.130913 -16.040346 4.047643 0.221800 3.031688 8.366882 -1.076842 20.029511 -17.018670 0.840891 5.849140 16.347289 0.000000 0.000000 0.000000 19.735437 15.773253 -1.638892 -0.567660 -4.825264 13.410957 -0.416827 -10.043565 -19.687671 -0.647533 -5.147643 14.330138 -1.788902 0.555145 -6.424477 0.245544 0.646236 -5.634968 1.286048 0.311956 -2.237709 7.908210 9.286949 2.936834 -13.238052 13.586270 11.998074 -4.836235 6.419227 4.540807 0.000000 0.000000 0.000000 -4.034499 17.874633 -12.580423 17.367660 -27.339905 4.254773 23.781627 15.437850 11.471354 0.000000 0.000000 0.000000 -7.125000 0.000000 0.000000 -2.352907 17.482493 -1.538667 0.000000 0.000000 0.000000 -0.552609 13.256091 8.754308 -15.011455 -24.162054 -3.230669 -14.154809 19.589613 49.976216 0.000000 0.000000 0.000000 7.125000 0.000000 0.000000 54.530802 75.379937 -41.510217
7.433808 16.349453 -1.633501 55.917685 -87.464696 -47.936462 0.000000 0.000000 0.000000 -19.026246 -16.645365 4.081652 0.217504 3.002318 8.285221 -1.153285 20.365265 -16.650242 0.683293 5.284758 14.722704 0.000000 0.000000 0.000000 19.763450 15.436712 -1.808897 -0.571009 -4.839556 13.451424 -0.428789 -10.172152 -19.947562 -0.657122 -5.184330 14.435208 -1.960774 0.558947 -6.564631 0.136079 0.658625 -5.658345 1.271381 0.320703 -2.186219 7.580027 9.731521 3.366615 -12.470978 14.091241 11.532897 -4.541365 6.722900 4.311350 0.000000 0.000000 0.000000 -3.904209 17.844560 -12.492445 17.315350 -27.271582 4.230823 24.291038 14.810775 11.597847 0.000000 0.000000 0.000000 -7.125000 0.000000 0.000000 -2.003040 17.295193 -1.317805 0.000000 0.000000 0.000000 -0.409855 13.156599 8.963149 -14.887532 -23.989238 -3.180041 -15.432828 20.443079 47.804745 0.000000 0.000000 0.000000 7.125000 0.000000 0.000000 46.453085 74.693489 -34.178714
7.414142 16.345559 -1.678731 46.164218 -87.111999 -38.231489 0.000000 0.000000 0.000000 -18.772391 -17.203943 4.198856 0.224804 3.051941 8.423339 -1.229663 20.688472 -16.235850 0.590805 4.921031 13.683429 0.000000 0.000000 0.000000 20.067223 15.026647 -1.712670 -0.568932 -4.830580 13.426070 -0.442951 -10.236094 -20.162730 -0.726703 -5.446795 15.187532 -1.943946 0.611284 -6.420861 0.092578 0.725255 -5.685457 1.218329 0.354656 -2.295710 7.518085 10.081792 3.132292 -12.038624 14.559662 11.978554 -4.347499 6.945974 4.501891 0.000000 0.000000 0.000000 -3.830827 18.068103 -12.400558 17.375196 -27.349718 4.258282 24.554790 13.863423 12.118511 0.000000 0.000000 0.000000 -7.125000 0.000000 0.000000 -1.848218 16.701726 -1.239719 0.000000 0.000000 0.000000 -0.337136 13.326133 8.941115 -14.892831 -23.996613 -3.182231 -15.003622 20.015096 48.379789 0.000000 0.000000 0.000000 7.125000 0.000000 0.000000 48.603177 74.865953 -36.078050
7.393953 16.347088 -1.728354 37.911260 -86.609453 -29.895496 0.000000 0.000000 0.000000 -18.459370 -17.977866 3.987052 0.253852 3.241447 8.951633 -1.240057 20.775888 -16.320535 0.570471 4.836705 13.443530 0.000000 0.000000 0.000000 20.322484 14.605138 -1.661378 -0.548373 -4.744063 13.180025 -0.431035 -10.463362 -20.274018 -0.764396 -5.583157 15.579520 -2.027753 0.625669 -6.614730 0.110491 0.763104 -5.495014 1.288499 0.375808 -1.993127 7.420345 10.187238 3.004624 -12.112322 14.704398 11.888985 -4.338825 7.010112 4.509257 0.000000 0.000000 0.000000 -3.850935 17.794463 -12.296882 17.521159 -27.539567 4.325620 24.196958 13.913850 12.031674 0.000000 0.000000 0.000000 -7.125000 0.000000 0.000000 -2.092073 16.833256 -1.397344 0.000000 0.000000 0.000000 -0.386332 13.006925 9.021724 -14.785305 -23.846143 -3.138606 -15.020659 19.962441 48.999300 0.000000 0.000000 0.000000 7.125000 0.000000 0.000000 50.577114 75.215450 -38.029291
7.385100 16.346613 -1.781446 30.659180 -86.055282 -22.429920 0.000000 0.000000 0.000000 -17.943166 -18.863851 3.525096 0.279371 3.399612 9.393398 -1.281991 20.926996 -16.000900 0.434670 4.229929 11.724464 0.000000 0.000000 0.000000 20.648824 14.312364 -1.815047 -0.534231 -4.683457 13.007888 -0.419555 -10.769106 -20.476925 -0.752653 -5.541119 15.458658 -2.020769 0.687198 -6.387391 0.044842 0.830503 -5.712365 1.215835 0.410726 -2.346797 7.896762 10.263755 3.556469 -12.439161 14.842186 11.574557 -4.537124 7.117121 4.395573 0.000000 0.000000 0.000000 -3.820644 18.346229 -11.965524 18.058324 -28.231782 4.576788 23.390398 14.486987 11.482507 0.000000 0.000000 0.000000 -7.125000 0.000000 0.000000 -2.627281 17.508033 -1.716744 0.000000 0.000000 0.000000 -0.256956 13.378135 9.146612 -14.819282 -23.893768 -3.152406 -15.298368 19.793420 48.568733 0.000000 0.000000 0.000000 7.125000 0.000000 0.000000 48.955930 75.083723 -36.570916
